<svg xmlns="http://www.w3.org/2000/svg" viewBox="0 0 9.545 7.755"><defs><style>.cls-1{fill:#999}</style></defs><path id="twitter-grey-icon" class="cls-1" d="M9.545.895a3.531 3.531 0 0 1-1.133.3A1.687 1.687 0 0 0 9.247.119 3.914 3.914 0 0 1 7.994.6 2.083 2.083 0 0 0 6.562 0a1.975 1.975 0 0 0-1.909 1.969.885.885 0 0 0 .06.418A5.489 5.489 0 0 1 .656.358a1.828 1.828 0 0 0-.238 1.014 1.958 1.958 0 0 0 .895 1.611 2.5 2.5 0 0 1-.895-.239 1.926 1.926 0 0 0 1.551 1.909 1.652 1.652 0 0 1-.537.06.757.757 0 0 1-.358-.06 1.933 1.933 0 0 0 1.849 1.372 3.794 3.794 0 0 1-2.446.835H0a5.307 5.307 0 0 0 2.983.895 5.522 5.522 0 0 0 5.548-5.548v-.238A3.468 3.468 0 0 0 9.545.895z"/></svg>