<svg xmlns="http://www.w3.org/2000/svg" viewBox="0 0 39.792 15.869"><defs><style>.cls-1{fill:none}.cls-2{fill:#999}.cls-3{fill:#fff}</style></defs><g id="youtube-grey-icon"><path id="Path_136" data-name="Path 136" class="cls-1" d="M30.3 4h4.773a13.455 13.455 0 0 1 0 1.551H33.4v8.77h-1.489v-8.77H30.3z" transform="translate(-12.224 -1.614)"/><path id="Path_137" data-name="Path 137" class="cls-1" d="M38.8 8.5h1.372v6.2a.314.314 0 0 0 .358.3 1.364 1.364 0 0 0 .895-.656V8.56H42.8v7.7h-1.375v-.895a2.406 2.406 0 0 1-1.551.955c-.776 0-1.074-.537-1.074-1.432z" transform="translate(-15.653 -3.429)"/><path id="Path_138" data-name="Path 138" class="cls-1" d="M47.6 4.1h1.372v3.341s.716-.895 1.372-.895a1.266 1.266 0 0 1 1.312 1.372v5.071s-.179 1.432-1.014 1.432a2.081 2.081 0 0 1-1.67-.895v.774H47.6z" transform="translate(-19.203 -1.654)"/><path id="Path_139" data-name="Path 139" class="cls-1" d="M57.772 12.616h2.744v-2.088A1.92 1.92 0 0 0 58.548 8.5c-1.73 0-1.909.895-2.028 1.312a3.26 3.26 0 0 0-.119.716v3.639a2.133 2.133 0 0 0 2.267 2.207s1.611-.119 1.849-1.432a5.339 5.339 0 0 0 .06-1.312h-1.433v.6s0 .895-.6.895-.776-.418-.776-.895z" transform="translate(-22.753 -3.429)"/><path id="Path_140" data-name="Path 140" class="cls-1" d="M50 10.8a1.07 1.07 0 0 1 .656-.3c.358 0 .6.3.6.776v3.878s0 .656-.6.656a.918.918 0 0 1-.656-.3z" transform="translate(-20.171 -4.236)"/><path id="Path_141" data-name="Path 141" class="cls-1" d="M58.7 12.23h1.372v-.955s-.06-.776-.656-.776-.716.656-.716.776z" transform="translate(-23.681 -4.236)"/><g id="Group_29" data-name="Group 29"><g id="Group_26" data-name="Group 26" transform="translate(0 2.386)"><g id="Group_25" data-name="Group 25"><path id="Path_142" data-name="Path 142" class="cls-2" d="M7.636 6.565a1.22 1.22 0 0 0-.656 0A2.09 2.09 0 0 0 5.429 8s-.06.477-.06.716v3.579a2.266 2.266 0 0 0 .358 1.133 1.753 1.753 0 0 0 1.432.835H7.7a1.9 1.9 0 0 0 1.372-.835 2.266 2.266 0 0 0 .358-1.133V8.713c0-.239-.06-.716-.06-.716a2.171 2.171 0 0 0-1.734-1.432zm.358 2.148v3.579c0 .895-.656.776-.656.776s-.716.06-.716-.776V8.713c0-1.014.716-.955.716-.955.716 0 .656.955.656.955zM2.685 8L1.611 4H0l1.969 6.085V14.2H3.4v-4.115L5.25 4H3.758zm10.44-1.372v5.846a1.473 1.473 0 0 1-.776.656c-.477 0-.418-.358-.418-.358V6.625h-1.372v6.562a.993.993 0 0 0 1.074 1.133c.716 0 1.491-.955 1.491-.955v.895H14.5V6.625z" transform="translate(0 -4)"/></g></g><g id="Group_28" data-name="Group 28" transform="translate(15.869)"><g id="Group_27" data-name="Group 27"><path id="Path_143" data-name="Path 143" class="cls-2" d="M47.122 7.04s-.06-.776-.656-.776-.716.656-.716.776v.955h1.372zM48.077.3C46.406 0 44.5.06 38.472 0c-4.057 0-6.145.06-6.383.06-2.625.119-4.415-.239-5.071 2.625a30.944 30.944 0 0 0-.418 5.19c.119 3.4-.119 7.457 3.1 7.755 1.67.119 6.025.239 8.889.239a75.78 75.78 0 0 0 9.6-.358 2.97 2.97 0 0 0 1.372-1.074c.835-1.133.895-2.864.955-6.562C50.4 4.713 50.582.656 48.077.3zM33.58 3.937h-1.67v8.77h-1.492v-8.77h-1.611V2.386h4.773a13.453 13.453 0 0 1 0 1.551zm4.3 8.889H36.5v-.895a2.406 2.406 0 0 1-1.551.955c-.776 0-1.074-.537-1.074-1.432V5.131h1.375v6.2a.314.314 0 0 0 .358.3 1.364 1.364 0 0 0 .895-.656V5.19h1.372zm5.31-1.432s-.179 1.432-1.014 1.432a2.081 2.081 0 0 1-1.67-.895v.776h-1.378V2.446H40.5v3.341s.716-.895 1.372-.895a1.266 1.266 0 0 1 1.312 1.372zm5.25 0c-.239 1.312-1.849 1.432-1.849 1.432a2.133 2.133 0 0 1-2.267-2.207V6.98a3.26 3.26 0 0 1 .119-.716c.179-.418.3-1.312 2.028-1.312a1.92 1.92 0 0 1 1.964 2.028v2.088H45.69v1.551a.815.815 0 0 0 .776.895c.537 0 .6-.895.6-.895v-.6h1.372c.056.063.116.421-.003 1.376zm-7.224-5.13a1.07 1.07 0 0 0-.656.3v4.713a.918.918 0 0 0 .656.3c.6 0 .6-.656.6-.656V7.04c-.003-.478-.242-.776-.6-.776z" transform="translate(-26.6)"/></g></g></g><path id="Path_144" data-name="Path 144" class="cls-1" d="M30.3 3.9h4.773a13.455 13.455 0 0 1 0 1.551H33.4v8.77h-1.489v-8.77H30.3z" transform="translate(-12.224 -1.573)"/><path id="Path_145" data-name="Path 145" class="cls-1" d="M38.8 8.5h1.372v6.2a.314.314 0 0 0 .358.3 1.364 1.364 0 0 0 .895-.656V8.56H42.8v7.7h-1.375v-.895a2.406 2.406 0 0 1-1.551.955c-.776 0-1.074-.537-1.074-1.432z" transform="translate(-15.653 -3.429)"/><path id="Path_146" data-name="Path 146" class="cls-1" d="M47.6 4.1h1.372v3.341s.716-.895 1.372-.895a1.266 1.266 0 0 1 1.312 1.372v5.071s-.179 1.432-1.014 1.432a2.081 2.081 0 0 1-1.67-.895v.774H47.6z" transform="translate(-19.203 -1.654)"/><path id="Path_147" data-name="Path 147" class="cls-1" d="M57.772 12.516h2.744v-2.088A1.92 1.92 0 0 0 58.548 8.4c-1.73 0-1.909.895-2.028 1.312a3.26 3.26 0 0 0-.119.716v3.639a2.133 2.133 0 0 0 2.267 2.207s1.611-.119 1.849-1.432a5.339 5.339 0 0 0 .06-1.312h-1.433v.6s0 .895-.6.895-.776-.418-.776-.895z" transform="translate(-22.753 -3.389)"/><path id="Path_148" data-name="Path 148" class="cls-1" d="M58.7 12.13h1.372v-.955s-.06-.776-.656-.776-.716.656-.716.776z" transform="translate(-23.681 -4.196)"/><path id="Path_149" data-name="Path 149" class="cls-1" d="M50 10.7a1.07 1.07 0 0 1 .656-.3c.358 0 .6.3.6.776v3.878s0 .656-.6.656a.918.918 0 0 1-.656-.3z" transform="translate(-20.171 -4.196)"/><path id="Path_150" data-name="Path 150" class="cls-3" d="M64.172 24.1a2.379 2.379 0 0 1-1.372 1.074" transform="translate(-25.335 -9.723)"/></g></svg>