<svg id="noun_523577_cc" xmlns="http://www.w3.org/2000/svg" viewBox="0 0 15.698 16.467"><defs><style>.cls-1{fill:#fff}</style></defs><path id="Path_253" data-name="Path 253" class="cls-1" d="M27.732 32.014c-.884 0-4.068-.318-7.974-4.413s-4.206-7.434-4.206-8.361c0-1.519 1.866-3.687 2.344-3.694h1.059a.36.36 0 0 1 .329.231l1.564 3.869a.388.388 0 0 1-.118.445c-1.47 1.16-1.958 1.518-1.967 2.1 0 1.259 4.949 6.452 6.142 6.452.566-.005.942-.511 2.05-2.057a.344.344 0 0 1 .423-.121l3.656 1.635a.377.377 0 0 1 .217.345v1.113c-.003.5-2.071 2.456-3.519 2.456z" transform="translate(-15.553 -15.547)"/></svg>