<svg xmlns="http://www.w3.org/2000/svg" viewBox="0 0 13.201 22.273"><defs><style>.cls-1{opacity:.5}.cls-2{fill:#030303}</style></defs><g id="Group_208" data-name="Group 208" transform="translate(-389.139 -1986.8)"><g id="Group_75" data-name="Group 75" class="cls-1" transform="translate(389.139 1998.591)"><path id="noun_602481" class="cls-2" d="M36.359 39.81h11.528a.812.812 0 0 1 .708.4.8.8 0 0 1-.033.829L42.8 49.955a.845.845 0 0 1-1.35 0L35.7 41.04a.7.7 0 0 1-.121-.428.944.944 0 0 1 .093-.4.851.851 0 0 1 .686-.4z" transform="translate(-35.579 -39.81)"/></g><g id="Group_78" data-name="Group 78" class="cls-1" transform="rotate(180 201.17 998.64)"><path id="noun_602481-2" data-name="noun_602481" class="cls-2" d="M.785 0h11.6a.819.819 0 0 1 .715.4.8.8 0 0 1-.033.829l-5.8 8.915a.854.854 0 0 1-1.359 0L.122 1.23A.7.7 0 0 1 0 .8.939.939 0 0 1 .095.4a.857.857 0 0 1 .69-.4z"/></g></g></svg>